PathFileType	4	(X/Y/Z)	C:\Users\WrightLab\Desktop\Jo\P1.2Trial3.trc
DataRate	CameraRate	NumFrames	NumMarkers	Units	OrigDataRate	OrigDataStartFrame	OrigNumFrames
100.00	100.00	       6	19	mm	100.00	330	       658
Frame#	Time	Headset_Front			Headset_Back			Headset_Left			Headset_Right			Left_Shoulder			Right_Shoulder			Sternum			C7			Left Elbow			Right Elbow			Left Wrist			Right Wrist			Left ASIS			Right ASIS			S2			Left Knee			Right Knee			Left Ankle			Right Ankle			
		X1	Y1	Z1	X2	Y2	Z2	X3	Y3	Z3	X4	Y4	Z4	X5	Y5	Z5	X6	Y6	Z6	X7	Y7	Z7	X8	Y8	Z8	X9	Y9	Z9	X10	Y10	Z10	X11	Y11	Z11	X12	Y12	Z12	X13	Y13	Z13	X14	Y14	Z14	X15	Y15	Z15	X16	Y16	Z16	X17	Y17	Z17	X18	Y18	Z18	X19	Y19	Z19	

330	3.290	-476.90848	1378.54199	242.06981	-605.54694	1504.62402	-4.58418	-455.73471	1437.22766	41.15400	-616.89032	1422.57214	205.10933	-413.08292	1230.17004	-77.37012	-755.45508	1244.35803	166.34273	-517.58667	1166.80701	143.25517	-646.97559	1297.17847	-45.40054	-403.97171	948.57074	-166.92027	-861.04224	1010.49951	211.39928	-309.73114	733.88226	-120.64800	-838.19250	784.11676	368.73233	-430.32816	856.45795	56.47400	-667.41888	850.08405	200.49159	-681.07629	900.77625	-121.85409	-358.20258	492.21985	160.30023	-727.53070	413.21539	138.94997	-315.71249	139.26749	191.34323	-801.34583	88.62939	39.64256	
331	3.300	-471.02829	1377.21509	249.59322	-600.08154	1503.14905	2.86885	-450.05283	1435.38867	47.50212	-610.76929	1421.17578	212.79518	-407.70978	1228.34033	-69.38981	-750.50500	1244.48071	175.44724	-512.18250	1164.98364	151.33832	-642.08698	1295.80493	-37.31936	-399.77216	947.32208	-159.86497	-851.89020	1007.82349	221.70137	-306.58429	731.80426	-113.75526	-828.28235	781.62598	377.15771	-425.04855	854.86267	65.40894	-663.68408	848.66602	207.81589	-675.52588	899.17206	-113.42304	-353.77576	488.58871	166.19946	-724.50751	411.07141	142.25169	-297.97958	145.88609	205.79147	-801.34882	88.14484	40.28532	
332	3.310	-465.11197	1375.88330	258.04810	-594.24475	1501.44617	11.07959	-444.48047	1433.60559	55.98969	-605.22876	1419.98242	220.64627	-402.40198	1226.82776	-61.59402	-744.48706	1241.54858	183.31586	-506.77374	1163.42139	159.25754	-635.82916	1294.12329	-28.44871	-396.23032	945.38416	-152.24400	-844.61926	1005.76111	231.10756	-302.46561	730.02783	-106.78919	-818.62714	780.22662	385.71884	-421.26306	852.33105	74.38239	-658.46765	847.03363	215.84991	-669.86304	897.70264	-106.13393	-349.16232	485.80780	172.67680	-721.78107	409.58090	147.21190	-281.71039	152.00200	221.05522	-801.29291	88.17276	40.47717	
333	3.320	-458.76984	1374.28857	265.04037	-588.39160	1499.57996	18.10374	-438.06824	1431.33521	63.38976	-598.15479	1418.26880	228.52441	-396.41080	1224.91077	-53.59801	-738.69299	1239.78027	190.62646	-501.38232	1161.56885	166.89012	-630.52899	1292.27832	-20.09115	-392.66379	943.78912	-143.73886	-837.47595	1003.69189	238.64374	-298.76126	728.18689	-100.05722	-809.72021	778.82745	394.40994	-416.43439	849.99945	83.52132	-653.83691	845.66748	222.76201	-664.18726	896.09106	-97.80470	-343.30389	483.98331	178.74504	-720.38116	408.71445	150.63179	-267.81531	158.49104	232.91296	-801.19757	88.29295	40.77454	
334	3.330	-451.70956	1372.41321	273.06705	-581.99823	1497.61157	27.01046	-431.91559	1429.99731	70.53964	-591.98804	1417.24170	236.59377	-390.42838	1223.47607	-46.21155	-732.18457	1239.67566	199.67712	-495.28073	1160.41553	175.57974	-624.16504	1291.23047	-13.39662	-387.65640	941.40857	-135.39751	-829.27496	1001.73779	247.79369	-295.14221	725.25549	-91.90039	-800.69226	776.75470	404.56897	-411.39273	847.92664	91.78342	-648.55951	844.40967	230.16161	-658.65936	894.93494	-90.62268	-338.17365	482.97229	186.10458	-715.29895	407.24033	156.09743	-255.05899	164.56914	244.91457	-801.10797	88.44115	41.03989	
335	3.340	-445.69019	1371.33838	280.69031	-575.94635	1496.07202	33.92256	-425.72519	1427.81995	78.57280	-585.31836	1415.52295	244.56616	-384.06540	1221.49207	-38.01039	-725.88116	1237.31396	207.90193	-488.76749	1158.99915	182.87787	-617.78284	1289.79187	-5.01838	-382.84689	939.72998	-127.63352	-820.82495	999.69403	257.39789	-291.50409	723.17786	-84.63391	-790.30359	775.01910	411.35229	-404.79565	846.08850	100.68375	-642.51898	843.86304	239.16763	-651.82666	892.70392	-82.25682	-333.64478	481.68143	193.31982	-713.97095	407.08533	161.68320	-243.18756	170.00894	256.68030	-801.23334	89.54262	42.28900	
